<svg xmlns="http://www.w3.org/2000/svg" version="1.0" viewBox="0 0 512 512" xml:space="preserve"><path fill="none" stroke="#ef3b2d" stroke-width="15" stroke-linecap="round" stroke-linejoin="round" stroke-miterlimit="10" d="M173.825 435.024c-13.087 0-23.697-10.609-23.697-23.697V389.67c0-39.143 31.732-70.875 70.875-70.875h70.098c39.143 0 70.875 31.732 70.875 70.875v21.658c0 13.087-10.609 23.697-23.697 23.697H173.825z" class="stroke-474747"></path><g fill="#ef3b2d" class="fill-474747"><circle cx="205.246" cy="375.196" r="13.577"></circle><circle cx="306.859" cy="375.196" r="13.577"></circle></g><path fill="none" stroke="#ef3b2d" stroke-width="15" stroke-linecap="round" stroke-linejoin="round" stroke-miterlimit="10" d="M97.541 346.022h11.136c1.055 0 2.088.092 3.095.261 18.372-46.822 63.965-79.974 117.304-79.974h53.953c53.338 0 98.932 33.152 117.304 79.974a18.788 18.788 0 0 1 3.095-.261h11.136c10.289 0 18.63 8.341 18.63 18.63v39.022c0 10.289-8.341 18.63-18.63 18.63h-6.625c-5.955 35.072-36.481 61.779-73.249 61.779H177.415c-36.768 0-67.294-26.707-73.249-61.779h-6.625c-10.289 0-18.63-8.341-18.63-18.63v-39.022c0-10.289 8.341-18.63 18.63-18.63z" class="stroke-474747"></path><path fill="none" stroke="#ef3b2d" stroke-width="15" stroke-linecap="round" stroke-linejoin="round" stroke-miterlimit="10" d="M400.332 346.283s2.718 11.19 3.124 27.091M111.77 346.283s-2.718 11.19-3.124 27.091M97.708 299.468H46.521c-13.264 0-24.016-10.752-24.016-24.016v-106.2c0-13.264 10.752-24.016 24.016-24.016H171.19c13.264 0 24.016 10.752 24.016 24.016v69.069M318.27 238.711v-69.555c0-13.211 10.71-23.921 23.921-23.921h123.488c13.211 0 23.921 10.71 23.921 23.921v106.391c0 13.211-10.71 23.921-23.921 23.921h-51.283" class="stroke-474747"></path><path fill="none" stroke="#ef3b2d" stroke-width="15" stroke-linecap="round" stroke-linejoin="round" stroke-miterlimit="10" d="M132.361 145.236V54.911c0-17.174 13.922-31.096 31.096-31.096h185.877c17.174 0 31.096 13.922 31.096 31.096v90.324M304.762 70.94H181.443M332.033 108.088h-150.59M268.416 145.236h-43.724M288.516 187.198h-63.824" class="stroke-474747"></path><g fill="none" stroke="#ef3b2d" stroke-width="15" stroke-linecap="round" stroke-linejoin="round" stroke-miterlimit="10" class="stroke-474747"><path d="m83.643 194.207-20.734 31.847 20.734 25.999M136.773 252.053l20.735-31.847-20.735-25.999M117.115 206.106l-13.188 36.396"></path></g><g fill="none" stroke="#ef3b2d" stroke-width="15" stroke-linecap="round" stroke-linejoin="round" stroke-miterlimit="10" class="stroke-474747"><path d="M355.845 228.552v12.202M380.078 198.571v22.765M404.311 215.274v18.834M428.545 195.517v38.591M452.778 223.368v25.818"></path></g></svg>